<svg width="36" height="46" viewBox="0 0 36 46" fill="none" xmlns="http://www.w3.org/2000/svg">
<path fill-rule="evenodd" clip-rule="evenodd" d="M5.7075 0.126869C5.16226 0.387052 4.93702 0.726981 4.77478 1.53441L4.72508 1.78165L2.99242 1.78363C1.47685 1.78534 1.21766 1.80664 0.923865 1.95364C0.466443 2.18253 0.176321 2.62981 0.0672088 3.27433C-0.0716092 4.09489 0.0231394 12.4606 0.183176 13.5142C0.619951 16.389 1.69973 18.7437 3.5366 20.8271C5.13656 22.6419 7.00778 23.8316 9.29 24.485C9.7169 24.6072 10.1689 24.7073 10.2944 24.7073H10.5225L10.5243 29.3149C10.5263 34.2616 10.5876 35.6952 10.8494 36.919C11.8639 41.6604 15.4389 45.2306 19.826 45.8836C21.1938 46.0872 22.3931 46.0255 23.7024 45.6843C27.5195 44.6895 30.6244 41.3106 31.5729 37.1191C31.8547 35.874 31.9042 34.9992 31.9042 31.2702V27.6127L32.251 27.5007C32.7141 27.3512 33.4885 26.8672 33.9629 26.4306C36.3123 24.2685 36.6833 20.4301 34.7948 17.8228C34.0705 16.8228 33.1979 16.1478 32.1082 15.7449C31.533 15.5322 31.3291 15.5034 30.3944 15.5034C29.4636 15.5034 29.2534 15.5327 28.6806 15.7426C27.8006 16.0652 27.0888 16.5426 26.4368 17.2476C24.2947 19.5636 24.1814 23.2402 26.1736 25.7844C26.6336 26.3718 27.4392 26.9967 28.2162 27.3687L28.8438 27.6693L28.8668 30.8408C28.8993 35.3433 28.7994 36.2245 28.0671 37.8907C27.2069 39.848 25.8568 41.2271 23.975 42.0707C23.1202 42.454 22.2817 42.6159 21.1725 42.6121C19.1295 42.6051 17.2944 41.7677 15.8881 40.2005C14.9214 39.1231 14.3096 37.9924 13.8913 36.5101L13.6685 35.7206L13.642 30.2651L13.6155 24.8096L14.0072 24.7515C14.5905 24.6651 15.8768 24.2968 16.5053 24.0362C20.2065 22.5014 23.0709 18.9905 24.0261 14.8178C24.3831 13.2582 24.4059 12.7967 24.3799 7.66329L24.3553 2.80144L24.1199 2.4616C23.692 1.84359 23.4601 1.78588 21.397 1.78363L19.5811 1.78165L19.5793 1.53441C19.5762 1.09541 19.2898 0.551128 18.9203 0.281684C18.634 0.0730159 18.4848 0.0285132 18.0714 0.0285132C17.4955 0.0285132 17.1323 0.242396 16.7991 0.777777C16.6061 1.08777 16.6019 1.13533 16.578 3.33304C16.5546 5.47654 16.5611 5.58973 16.7307 5.97551C16.9638 6.50604 17.4153 6.835 17.9813 6.8867C18.7922 6.96078 19.4367 6.38755 19.5766 5.46773L19.6244 5.15307L20.5059 5.12745L21.3873 5.10191L21.3557 9.03829C21.3258 12.7468 21.3135 13.019 21.1435 13.7389C20.5592 16.2132 19.414 18.1118 17.6223 19.5766C16.5132 20.4832 15.0809 21.1587 13.7619 21.3969C13.0082 21.533 11.4643 21.533 10.7107 21.3969C7.32443 20.7853 4.40745 17.9066 3.45213 14.2334C3.13426 13.0111 3.09623 12.4228 3.09607 8.72677L3.09599 5.10812H3.91053C4.68982 5.10812 4.72671 5.11684 4.76229 5.3104C4.78278 5.4217 4.82326 5.63406 4.85215 5.7824C4.92519 6.15676 5.54615 6.79167 5.91364 6.86764C6.6221 7.01409 7.26126 6.70563 7.6006 6.05364C7.77908 5.71066 7.78985 5.59009 7.81441 3.65652C7.83065 2.37457 7.80715 1.48542 7.751 1.25571C7.51327 0.283033 6.52465 -0.263047 5.7075 0.126869ZM31.4553 19.0878C33.0834 19.906 33.4627 22.2191 32.2032 23.6488C31.0213 24.9905 28.9347 24.6539 28.1121 22.9889C27.808 22.3732 27.7374 21.4436 27.9432 20.7613C28.4231 19.1696 30.0632 18.3882 31.4553 19.0878Z" fill="white"/>
</svg>
