<svg width="44" height="40" viewBox="0 0 44 40" fill="none" xmlns="http://www.w3.org/2000/svg">
<path fill-rule="evenodd" clip-rule="evenodd" d="M20.8914 0.104245C19.9897 0.355774 19.6075 0.641684 17.7438 2.45858C6.33965 13.5762 0.340993 19.4741 0.181575 19.7254C-0.270283 20.4382 0.164292 21.4121 1.00919 21.5801C1.58599 21.6949 1.85641 21.5577 2.74577 20.6994L3.59058 19.884L3.62145 27.6114C3.64974 34.7163 3.66462 35.3802 3.80529 35.852C4.39499 37.8297 5.93663 39.3409 7.86479 39.8313C8.5108 39.9956 8.87306 40 22.0001 40C35.1272 40 35.4895 39.9956 36.1355 39.8313C37.6523 39.4455 38.9844 38.4 39.6926 37.0396C40.3795 35.72 40.3449 36.1982 40.3788 27.5683L40.4089 19.8832L41.2542 20.699C42.1439 21.5577 42.4142 21.6949 42.9911 21.5801C43.8367 21.4119 44.2696 20.4402 43.8187 19.7228C43.5784 19.3403 24.8922 1.06991 24.3473 0.684532C23.7096 0.233559 23.0972 0.0426664 22.1721 0.00666035C21.6159 -0.015063 21.2072 0.0160682 20.8914 0.104245ZM22.6374 2.65956C22.8145 2.7332 25.7883 5.58008 30.3734 10.0654L37.8216 17.3516L37.8209 25.8321C37.8206 31.2511 37.7882 34.509 37.7316 34.8567C37.5637 35.8859 36.9292 36.7411 36.0159 37.1696L35.543 37.3915H22.0001H8.45732L7.98439 37.1696C7.07105 36.7411 6.43664 35.8859 6.26871 34.8567C6.21205 34.509 6.17972 31.2511 6.17937 25.8323L6.17868 17.3519L13.6289 10.0649C17.7265 6.05713 21.1992 2.72593 21.3461 2.6623C21.6956 2.51101 22.2769 2.50981 22.6374 2.65956ZM18.8374 13.8005C18.6822 13.8766 18.4694 14.0585 18.3645 14.2048C18.1806 14.4612 18.1728 14.5534 18.1483 16.7586L18.1229 19.0463L15.9557 19.0482C13.5038 19.0504 13.2498 19.1018 12.8989 19.6664C12.7186 19.9566 12.7136 20.0433 12.7136 22.9138C12.7136 26.9808 12.515 26.7433 15.9166 26.7434L18.1308 26.7436L18.1309 28.9459C18.131 31.4083 18.1619 31.5641 18.7239 31.9375C19.0136 32.1301 19.041 32.1317 21.9914 32.1313C24.8233 32.1311 24.9803 32.1227 25.2511 31.9586C25.808 31.6208 25.8655 31.3366 25.8676 28.907L25.8695 26.7515L28.1697 26.7262C31.4971 26.6896 31.2867 26.9496 31.2867 22.8733C31.2867 20.0472 31.2843 20.009 31.0932 19.7297C30.6541 19.088 30.6717 19.092 28.146 19.0638L25.8775 19.0384L25.852 16.7821C25.8236 14.2699 25.8277 14.2874 25.1825 13.8507C24.9015 13.6605 24.8653 13.6583 22.0089 13.6602C19.5237 13.6619 19.0801 13.6815 18.8374 13.8005ZM23.2903 18.4691C23.2905 20.5583 23.3024 20.7334 23.4615 20.9928C23.5555 21.1462 23.7584 21.348 23.9126 21.4415C24.1734 21.5997 24.3494 21.6115 26.4499 21.6118L28.7071 21.6121V22.895V24.1779H26.5327C24.4468 24.1779 24.3428 24.1857 23.9809 24.3703C23.3165 24.7091 23.2899 24.8242 23.2899 27.3623V29.5659H22.0042H20.7184L20.6929 27.3056C20.6688 25.1775 20.657 25.0315 20.4901 24.8093C20.3925 24.6795 20.206 24.494 20.0755 24.397C19.8521 24.231 19.7053 24.2192 17.5658 24.1952L15.2932 24.1699V22.891V21.6121H17.4886C19.9279 21.6121 20.1075 21.5804 20.4611 21.0872C20.6647 20.8033 20.6677 20.7701 20.6928 18.5118L20.7183 16.224H22.0041H23.2899L23.2903 18.4691Z" fill="white"/>
</svg>
