<svg width="41" height="41" viewBox="0 0 41 41" fill="none" xmlns="http://www.w3.org/2000/svg">
<path fill-rule="evenodd" clip-rule="evenodd" d="M3.30544 0.137456C1.70838 0.567745 0.407404 1.92431 0.0808106 3.49977C0.0101983 3.83999 -0.0118739 8.54301 0.00580214 19.4673C0.0286069 33.6309 0.0438101 34.9957 0.183844 35.4578C0.487175 36.4593 0.734639 37.018 1.17077 37.6863C2.21109 39.2808 3.64193 40.298 5.6166 40.8472C6.11886 40.9869 7.39849 41 20.4992 41C33.6 41 34.8796 40.9869 35.3819 40.8472C36.8265 40.4455 37.9218 39.8293 38.8601 38.8905C39.4909 38.2594 40.1999 37.1977 40.4665 36.4847C40.9764 35.1215 40.9597 35.3351 40.9924 29.7418C41.0135 26.1388 40.9912 24.3786 40.9203 24.0368C40.6707 22.8342 39.7205 21.5762 38.6527 21.0348C37.6815 20.5424 37.4541 20.521 33.2104 20.521H29.2914V12.202C29.2914 3.16029 29.3038 3.39742 28.7778 2.35899C28.4507 1.71301 27.6553 0.901823 27.0136 0.559681C25.9067 -0.0306821 26.4904 -0.00447631 14.5956 0.00221258C5.59471 0.00725216 3.70466 0.0298843 3.30544 0.137456ZM25.6843 3.16303C25.8235 3.26694 26.0222 3.46578 26.1261 3.60496C26.3146 3.85758 26.315 3.88204 26.3622 19.4052C26.4071 34.2206 26.4174 34.9805 26.5801 35.5481C26.7998 36.3145 27.1836 37.1667 27.5474 37.6956L27.8349 38.1137H17.3174C5.74903 38.1137 6.29708 38.1392 5.19265 37.5502C4.551 37.208 3.75558 36.3969 3.42844 35.7509C2.88708 34.6819 2.91483 35.5787 2.91483 19.1791C2.91483 8.74313 2.94478 4.05229 3.01255 3.87343C3.14242 3.53047 3.44777 3.20766 3.78489 3.05702C4.01028 2.95632 5.97928 2.93781 14.7456 2.95421C25.3799 2.974 25.4327 2.97501 25.6843 3.16303ZM6.71105 5.98758C6.1042 6.25578 5.7559 6.95692 5.88568 7.64908C5.96591 8.0769 6.42283 8.58333 6.83863 8.7052C7.05779 8.76943 8.30317 8.79362 10.4411 8.77502C13.5753 8.74789 13.7191 8.73901 13.9615 8.55777C14.442 8.19867 14.592 7.90583 14.592 7.32646C14.592 6.74709 14.442 6.45425 13.9615 6.09515C13.7182 5.91336 13.5822 5.90539 10.3496 5.88523C7.69632 5.86856 6.93168 5.89009 6.71105 5.98758ZM6.71105 16.2509C6.10493 16.5168 5.75581 17.2191 5.88568 17.9115C5.966 18.3398 6.42319 18.846 6.83863 18.9666C7.06631 19.0328 9.62649 19.0551 14.8371 19.0365C22.413 19.0094 22.5037 19.0069 22.7536 18.8202C23.2342 18.4612 23.3842 18.1683 23.3842 17.5889C23.3842 17.0094 23.2342 16.7166 22.7536 16.3576C22.5034 16.1706 22.4196 16.1684 14.7456 16.1485C8.43816 16.1322 6.93827 16.1512 6.71105 16.2509ZM6.71105 22.1151C6.10493 22.3811 5.75581 23.0834 5.88568 23.7757C5.966 24.204 6.42319 24.7103 6.83863 24.8308C7.06631 24.897 9.62649 24.9194 14.8371 24.9008C22.413 24.8736 22.5037 24.8712 22.7536 24.6844C23.2342 24.3254 23.3842 24.0326 23.3842 23.4531C23.3842 22.8736 23.2342 22.5808 22.7536 22.2218C22.5034 22.0349 22.4196 22.0327 14.7456 22.0127C8.43816 21.9964 6.93827 22.0155 6.71105 22.1151ZM37.4074 23.6879C37.5464 23.7918 37.7451 23.9906 37.849 24.1297C38.0334 24.3767 38.0384 24.4972 38.0631 29.2522C38.0802 32.5325 38.0555 34.2801 37.9877 34.607C37.6558 36.2064 36.3517 37.5527 34.7231 37.977C32.4456 38.5705 30.0426 37.112 29.4317 34.7654C29.3134 34.3113 29.2914 33.3812 29.2914 28.8371V23.4474L33.223 23.4732C37.0301 23.4981 37.1626 23.5049 37.4074 23.6879ZM14.0379 27.9787C13.4313 28.2462 13.0827 28.9478 13.2125 29.64C13.2927 30.068 13.7498 30.5743 14.1655 30.6958C14.3873 30.7606 15.8511 30.7842 18.5007 30.7656C22.3753 30.7385 22.5088 30.7316 22.7537 30.5486C23.2342 30.1896 23.3842 29.8968 23.3842 29.3173C23.3842 28.7379 23.2342 28.4451 22.7537 28.086C22.5083 27.9026 22.3821 27.8965 18.4091 27.8763C15.1469 27.8598 14.2606 27.8805 14.0379 27.9787Z" fill="white"/>
</svg>
