<svg width="27" height="26" viewBox="0 0 27 26" fill="none" xmlns="http://www.w3.org/2000/svg">
<path fill-rule="evenodd" clip-rule="evenodd" d="M13.6122 0.0225175C10.7113 0.16383 7.82664 1.39539 5.73651 3.38502C5.43933 3.6679 5.25368 3.88978 5.21428 4.00917C5.01015 4.62798 5.65847 5.18927 6.23556 4.89328C6.3285 4.84563 6.55159 4.66951 6.73134 4.50194C10.1336 1.32962 15.1575 0.589775 19.2911 2.65225C19.6963 2.85442 20.218 3.14587 20.4503 3.29996L20.8727 3.58005L20.4749 3.61244C20.256 3.63024 19.9996 3.68491 19.9049 3.73389C19.3824 4.0042 19.4129 4.7806 19.9567 5.04754C20.1387 5.13687 20.216 5.13745 21.5137 5.05879C22.2648 5.01325 22.953 4.95245 23.0431 4.92366C23.2377 4.86143 23.4046 4.69492 23.4849 4.48276C23.5772 4.23912 23.4036 1.57278 23.2817 1.36147C22.9981 0.869864 22.2975 0.839911 22.0089 1.30711C21.9225 1.44695 21.9024 1.5704 21.9024 1.96185C21.9024 2.2272 21.8924 2.44427 21.8802 2.44427C21.868 2.44427 21.6839 2.32377 21.471 2.17654C19.8498 1.05508 17.7361 0.277039 15.7508 0.0710128C15.0184 -0.00500536 14.4446 -0.0180008 13.6122 0.0225175ZM20.7407 9.17973V10.8438H21.0576H21.3744L21.3747 10.1966C21.3751 9.20989 21.4896 8.96768 21.938 9.0046C22.2592 9.03107 22.3247 9.21951 22.3247 10.1174L22.3248 10.8438H22.6681H23.0113L23.01 10.1174C23.0093 9.71793 22.9842 9.28454 22.9542 9.15437C22.8842 8.85035 22.6785 8.5822 22.4382 8.48177C22.1892 8.3777 21.784 8.41711 21.5843 8.56477C21.5003 8.627 21.4186 8.67787 21.4029 8.67787C21.3872 8.67787 21.3744 8.41637 21.3744 8.09677V7.51567H21.0576H20.7407V9.17973ZM2.54031 8.88949C2.2953 8.98823 0.198357 10.4276 0.115772 10.5537C-0.109964 10.8983 0.00451473 11.36 0.371236 11.5836C0.661076 11.7604 0.918652 11.7241 1.35486 11.4449C1.5646 11.3106 1.74329 11.2096 1.75189 11.2204C1.76045 11.2312 1.74582 11.4777 1.71926 11.7683C1.66044 12.4123 1.70622 13.6772 1.81563 14.4323C2.1889 17.0085 3.39604 19.5067 5.17996 21.3947C5.74047 21.9879 6.63661 22.7388 7.355 23.217C8.63417 24.0687 10.6994 24.9359 11.3249 24.884C11.6416 24.8577 11.8341 24.7207 11.9557 24.4352C12.0505 24.2128 12.0471 24.08 11.9411 23.8565C11.8219 23.6053 11.7244 23.5518 10.8494 23.2578C9.12308 22.6776 7.75493 21.834 6.48115 20.5643C4.68614 18.775 3.57457 16.4756 3.26409 13.9091C3.1985 13.3672 3.1918 11.6362 3.25522 11.6362C3.28019 11.6362 3.38854 11.7687 3.49605 11.9308C3.79159 12.376 4.18002 12.5245 4.56786 12.3404C4.81456 12.2233 4.95201 11.9877 4.95222 11.6816C4.95243 11.4583 4.89852 11.3535 4.34635 10.5034C3.46828 9.15141 3.35998 9.0046 3.17553 8.91612C2.99299 8.82864 2.71973 8.81712 2.54031 8.88949ZM25.5723 8.88617C25.3872 8.96166 25.1799 9.2119 25.1441 9.40308C25.1219 9.52178 25.1587 9.82749 25.2468 10.2556C25.4519 11.2513 25.4931 11.6564 25.4931 12.6766C25.4931 14.0213 25.324 15.0531 24.9033 16.2767C24.1119 18.5779 22.5561 20.6112 20.5823 21.9235C20.1199 22.2309 19.4209 22.6314 19.1461 22.7463L18.9538 22.8267L19.1344 22.4496C19.3355 22.0298 19.3552 21.8532 19.2302 21.5897C19.1169 21.3507 18.859 21.1978 18.5696 21.1981C18.1191 21.1985 18.0625 21.269 17.3267 22.7489C16.4092 24.5943 16.3702 24.4786 18.2246 25.4069C19.433 26.0118 19.4443 26.0161 19.7558 25.9936C20.0363 25.9733 20.0884 25.9504 20.2468 25.7775C20.396 25.6146 20.4239 25.5445 20.4237 25.3324C20.4234 24.9456 20.2899 24.7774 19.7787 24.5197L19.3414 24.2993L19.8167 24.0785C21.1839 23.4431 22.7034 22.3109 23.7159 21.1732C25.4361 19.2402 26.4314 17.1573 26.8745 14.563C27.03 13.6529 27.0434 11.8192 26.9013 10.8966C26.7778 10.0942 26.6098 9.37365 26.5032 9.18929C26.3328 8.89451 25.8984 8.75304 25.5723 8.88617ZM10.4968 9.28955C9.84147 9.46209 9.14304 9.93637 8.68449 10.5203C8.50058 10.7546 8.45564 10.8452 8.50443 10.8835C8.54023 10.9115 8.84105 11.0937 9.17298 11.2883C9.72039 11.6093 9.78112 11.6333 9.82669 11.5467C9.85436 11.4942 10.0343 11.2959 10.2265 11.1061C10.7091 10.6295 11.1138 10.5193 11.589 10.7351C11.8693 10.8625 11.9757 11.0631 11.9742 11.4619C11.9719 12.0627 11.8057 12.287 9.94893 14.196L8.53955 15.645L8.55454 16.2423L8.56948 16.8397L11.1965 16.8533L13.8235 16.8671V16.1006V15.3341H12.3681H10.9127L11.9324 14.2635C13.2717 12.8576 13.5387 12.441 13.5973 11.6658C13.6785 10.5916 12.9395 9.55718 11.8982 9.2876C11.5098 9.18707 10.8829 9.18791 10.4968 9.28955ZM16.1514 11.5619L14.8267 13.7591V14.4146V15.0699H16.3316H17.8365V15.968V16.8661H18.6286H19.4206V15.968V15.0699H19.8431H20.2655V14.3568V13.6436H19.8431H19.4206V12.9833V12.3229H18.6302H17.8398L17.825 12.9701L17.8101 13.6172L17.2889 13.6324C16.8808 13.6443 16.7733 13.6328 16.7937 13.5796C16.8081 13.5421 17.3694 12.5905 18.041 11.4648C18.7127 10.3391 19.2622 9.40604 19.2622 9.39135C19.2622 9.37667 18.8603 9.36462 18.3692 9.36462H17.4761L16.1514 11.5619Z" fill="white"/>
</svg>
