<svg width="24" height="24" viewBox="0 0 24 24" fill="none" xmlns="http://www.w3.org/2000/svg">
<path fill-rule="evenodd" clip-rule="evenodd" d="M6.51374 0.0561592C6.12483 0.236498 6.00525 0.503896 6.00525 1.19314V1.69893H4.14313C2.64375 1.69893 2.21973 1.71491 1.9664 1.78101C1.04321 2.02187 0.332133 2.73636 0.0903628 3.66598C-0.0301209 4.12916 -0.0301209 21.5698 0.0903628 22.0329C0.332133 22.9626 1.04321 23.6771 1.9664 23.9179C2.24333 23.9902 3.4456 24 12 24C20.5544 24 21.7567 23.9902 22.0336 23.9179C22.9568 23.6771 23.6679 22.9626 23.9096 22.0329C24.0301 21.5698 24.0301 4.12916 23.9096 3.66598C23.6679 2.73636 22.9568 2.02187 22.0336 1.78101C21.7803 1.71496 21.3567 1.69893 19.8616 1.69893H18.0042L17.9861 1.11299C17.9665 0.479826 17.92 0.360494 17.5995 0.120811C17.3922 -0.0341708 16.8845 -0.0341708 16.6772 0.120811C16.3567 0.360494 16.3102 0.479826 16.2906 1.11299L16.2725 1.69893H12H7.72751L7.70937 1.11299C7.68994 0.483096 7.64267 0.360011 7.33068 0.126708C7.1533 -0.00591916 6.72703 -0.0427482 6.51374 0.0561592ZM21.8814 3.55174C21.9627 3.61254 22.0789 3.72881 22.1396 3.81019C22.2436 3.94963 22.2509 4.04065 22.2658 5.40171L22.2816 6.84533H12.0025H1.72329V5.4818C1.72329 4.0689 1.74245 3.92009 1.95435 3.68903C2.21663 3.40293 1.65858 3.41724 12.063 3.42968L21.7337 3.4412L21.8814 3.55174ZM22.264 15.1507C22.25 21.7119 22.2495 21.7413 22.1396 21.8886C22.0789 21.9701 21.9627 22.0864 21.8814 22.1472L21.7336 22.2577H12H2.2664L2.11857 22.1472C2.03726 22.0864 1.92112 21.9701 1.86042 21.8886C1.75053 21.7413 1.75 21.7119 1.73603 15.1507L1.72206 8.5608H12H22.2779L22.264 15.1507ZM15.9341 11.1983C15.8752 11.2318 14.5907 12.32 13.0797 13.6165L10.3324 15.9738L9.25269 14.9007C8.44244 14.0954 8.12204 13.8112 7.9688 13.7621C7.37644 13.5721 6.79543 14.086 6.8875 14.7184C6.92234 14.9578 6.97758 15.0212 8.37644 16.4276C9.39469 17.4513 9.88353 17.9061 10.0109 17.9482C10.2691 18.0336 10.5801 17.9764 10.8111 17.8012C11.4506 17.3158 16.9914 12.4961 17.058 12.3671C17.2623 11.9715 17.0997 11.4401 16.711 11.2333C16.5028 11.1225 16.099 11.1043 15.9341 11.1983Z" fill="white"/>
</svg>
