<svg width="29" height="28" viewBox="0 0 29 28" fill="none" xmlns="http://www.w3.org/2000/svg">
<path fill-rule="evenodd" clip-rule="evenodd" d="M14.5763 0.00824678C13.4988 0.153972 12.9565 0.297986 12.2538 0.624856C11.2483 1.09255 10.2413 1.94169 9.64196 2.82728C9.24675 3.41126 0.871005 18.0274 0.605244 18.5968C0.0271535 19.8356 -0.148302 21.3362 0.128563 22.6745C0.604791 24.9767 2.1542 26.7985 4.32204 27.6053C6.57237 28.4426 9.23706 27.9212 11.0232 26.294L11.361 25.9861L11.4673 26.1071C11.6421 26.3059 12.2778 26.6921 12.7936 26.9128C13.8284 27.3556 15.5375 27.7218 17.3974 27.8994C18.5248 28.007 21.1742 28.0206 22.2812 27.9246C26.0886 27.5941 28.4623 26.7007 28.9132 25.4283C29.0282 25.1038 29.0293 18.9303 28.9144 18.546C28.5564 17.3485 26.421 16.4831 22.8428 16.0855C21.6994 15.9585 19.3573 15.9135 18.2391 15.9971C17.7297 16.0352 17.3057 16.0582 17.2967 16.0482C17.2878 16.0381 18.0704 14.6568 19.0358 12.9785C20.8871 9.76026 21.0842 9.38805 21.318 8.66712C21.7992 7.18289 21.7079 5.41736 21.0753 3.97409C20.051 1.63723 17.8706 0.138458 15.3128 0.0130377C15.0012 -0.00224775 14.6698 -0.00441507 14.5763 0.00824678ZM16.4065 1.31784C17.9891 1.72199 19.2935 2.81906 19.9852 4.32782C20.3646 5.15506 20.4646 5.63718 20.4665 6.64762C20.4685 7.64157 20.3698 8.1404 20.0216 8.89669C19.8247 9.32446 15.9994 16.0315 15.8755 16.1664C15.814 16.2333 15.0569 15.813 11.0973 13.5143C8.50941 12.0119 6.39159 10.7665 6.39097 10.7467C6.38876 10.6747 10.3757 3.75701 10.6108 3.42512C10.8884 3.033 11.5672 2.35884 11.9419 2.10287C12.5346 1.69803 13.3761 1.35343 14.0664 1.23291C14.2534 1.20029 14.4701 1.16236 14.548 1.14873C14.8633 1.0934 15.8957 1.18734 16.4065 1.31784ZM15.5386 2.0881C15.3358 2.14747 15.1712 2.40122 15.1712 2.65406C15.1712 2.92327 15.4354 3.16846 15.7256 3.16846C16.308 3.16846 16.4867 2.38525 15.9662 2.11428C15.7812 2.018 15.7784 2.01783 15.5386 2.0881ZM13.7265 2.18312C13.5067 2.23753 12.9705 2.48244 12.626 2.68571C11.9646 3.07595 11.0857 4.04207 11.0001 4.47297C10.9057 4.94808 11.4352 5.34442 11.8107 5.07972C11.8769 5.03295 12.0476 4.83041 12.1899 4.62959C12.6401 3.99462 13.1237 3.62982 13.9038 3.33683C14.408 3.14742 14.5335 3.0472 14.5802 2.79682C14.6198 2.58448 14.4944 2.29211 14.3245 2.20057C14.2135 2.14074 13.931 2.13247 13.7265 2.18312ZM9.67669 14.0031C11.7197 15.1906 13.5531 16.2577 13.7509 16.3744L14.1105 16.5865L13.451 16.8044C12.2376 17.2054 11.3727 17.7803 11.0981 18.3683C10.9815 18.618 10.9788 18.6924 10.9788 21.6407V24.6577L10.7251 24.968C10.1198 25.7081 9.13395 26.3404 8.12728 26.6342C5.41392 27.4258 2.63814 26.0953 1.54886 23.481C0.939896 22.0195 1.00193 20.3377 1.71758 18.907C1.87014 18.6021 4.22392 14.4684 5.63929 12.0199C5.74081 11.8442 5.80704 11.7842 5.87168 11.8091C5.92142 11.8284 7.63366 12.8156 9.67669 14.0031ZM22.3004 17.184C22.4743 17.225 22.2018 17.3564 18.9243 18.8121L15.359 20.3956L14.6421 20.2242C13.2009 19.8795 12.1119 19.326 12.1119 18.9382C12.1119 18.5748 13.1344 18.0395 14.4949 17.6905C15.5707 17.4146 16.5812 17.2701 18.4854 17.1198C18.952 17.083 22.0962 17.1359 22.3004 17.184ZM25.3971 17.6782C26.3234 17.9207 26.9603 18.1669 27.3983 18.4519C27.9319 18.7991 27.9757 18.9933 27.5893 19.2998C26.3914 20.25 23.0652 20.8463 19.354 20.776C18.4919 20.7596 17.7459 20.7234 17.6964 20.6955C17.6302 20.6582 18.5416 20.2272 21.1335 19.0704C23.0734 18.2045 24.6606 17.4936 24.6606 17.4907C24.6606 17.4878 24.992 17.5722 25.3971 17.6782ZM13.4507 21.0696C14.4551 21.4063 15.6438 21.6388 17.324 21.8273C18.1947 21.9249 21.5374 21.9268 22.5078 21.8301C24.6403 21.6177 26.5584 21.1701 27.5894 20.6441L27.8615 20.5053V22.8046V25.1039L27.6491 25.3094C26.9522 25.9833 24.8423 26.5569 22.2245 26.7842C21.1239 26.8798 18.5781 26.8664 17.4656 26.7591C15.2249 26.5432 13.446 26.095 12.5719 25.5263C12.3857 25.4051 12.206 25.2545 12.1726 25.1917C12.1323 25.1159 12.1119 24.3083 12.1119 22.7915V20.5056L12.4451 20.6749C12.6284 20.768 13.0809 20.9457 13.4507 21.0696Z" fill="white"/>
</svg>
