<svg width="25" height="25" viewBox="0 0 25 25" fill="none" xmlns="http://www.w3.org/2000/svg">
<path fill-rule="evenodd" clip-rule="evenodd" d="M11.5723 0.0329391C9.99644 0.252227 8.7249 0.878478 7.61045 1.9842C7.01846 2.57156 6.66396 3.08171 6.46382 3.63453L6.32637 4.01423L6.31025 6.20227C6.29678 8.03084 6.30684 8.46394 6.37148 8.8388C6.51841 9.69065 6.8606 10.5308 7.37349 11.299C7.70903 11.8016 8.51128 12.5971 9.02197 12.9338L9.42578 13.2001L9.4126 14.1241L9.39941 15.0481L7.05566 15.5708C4.52886 16.1343 4.23462 16.226 3.57866 16.6546C2.91133 17.0905 2.37778 17.6705 2.00073 18.37C1.78291 18.7741 0 24.0402 0 24.2795C0 24.6393 0.36665 25 0.732422 25C0.970215 25 1.2563 24.827 1.35977 24.6207C1.41011 24.5202 1.83984 23.2699 2.3147 21.842C3.1937 19.1991 3.29453 18.9526 3.69785 18.4601C3.91978 18.189 4.37979 17.8452 4.76074 17.6657C5.05288 17.5279 6.22456 17.2219 6.27319 17.2706C6.2873 17.2847 6.29883 18.0152 6.29883 18.8938V20.4914L5.97749 20.6497C5.34897 20.9593 4.84814 21.6498 4.73872 22.3577C4.4981 23.9146 5.93955 25.2746 7.48052 24.9446C8.40752 24.7461 9.1438 23.9494 9.28081 22.9967C9.41489 22.0641 8.89165 21.0622 8.06577 20.6702L7.76856 20.5292L7.76641 18.7214L7.76421 16.9135L8.76562 16.6895C9.46948 16.532 9.77993 16.4812 9.8104 16.5185C9.83423 16.5476 10.3082 17.3301 10.8636 18.2572C11.4191 19.1843 11.9311 20.0037 12.0013 20.078C12.245 20.3357 12.7132 20.3491 12.9729 20.1058C13.0399 20.0431 13.5686 19.2002 14.1477 18.2328C14.7269 17.2653 15.2028 16.4705 15.2054 16.4666C15.2079 16.4626 15.6659 16.5605 16.2231 16.6841L17.2363 16.9089V17.9187V18.9285L17.0173 18.9899C16.3588 19.1744 15.5784 19.8442 15.2382 20.5168C14.9305 21.1252 14.8852 21.4795 14.9026 23.1374C14.9162 24.4298 14.9225 24.5118 15.0177 24.6393C15.2419 24.9396 15.3377 24.9744 15.9824 24.9898C16.4772 25.0016 16.6057 24.9893 16.7471 24.9165C17.3646 24.5986 17.223 23.6602 16.5412 23.5511L16.3489 23.5203L16.3658 22.5378C16.3822 21.5756 16.3855 21.549 16.5231 21.2501C16.6775 20.9145 16.9572 20.6241 17.2925 20.4509C17.609 20.2876 18.196 20.2659 18.5619 20.4039C18.9459 20.5489 19.25 20.8327 19.444 21.227L19.6045 21.5531L19.6216 22.5366L19.6387 23.5201L19.4459 23.551C18.7634 23.6602 18.6214 24.5984 19.2393 24.9165C19.3807 24.9893 19.5091 25.0016 20.004 24.9898C20.6487 24.9744 20.7447 24.9395 20.9687 24.6391C21.0653 24.5094 21.0693 24.4431 21.0691 22.9808C21.069 21.6786 21.0565 21.4124 20.9832 21.146C20.7176 20.1824 19.9534 19.348 19.03 19.0136L18.7256 18.9033L18.7121 18.1076C18.7047 17.6699 18.7157 17.296 18.7365 17.2768C18.7943 17.2234 20.0111 17.5419 20.2881 17.6828C20.6448 17.8643 21.1 18.2132 21.3021 18.4601C21.7064 18.9537 21.8057 19.1972 22.7105 21.9153C23.1993 23.3835 23.632 24.6354 23.6723 24.6975C23.7667 24.8431 24.0755 25 24.2676 25C24.6334 25 25 24.6393 25 24.2795C25 24.1 23.2493 18.8531 23.0721 18.5015C22.5248 17.4157 21.564 16.5623 20.4346 16.159C20.2734 16.1014 19.1199 15.8272 17.8711 15.5496L15.6006 15.0448L15.5893 14.1224L15.5779 13.2001L15.9799 12.933C16.486 12.5968 17.2873 11.802 17.6205 11.3057C18.1318 10.5442 18.4823 9.68635 18.6285 8.8388C18.6932 8.46394 18.7032 8.03084 18.6897 6.20227L18.6736 4.01423L18.5362 3.63453C18.3361 3.08206 17.9815 2.57161 17.3896 1.98391C16.4059 1.00742 15.3061 0.412002 13.954 0.123918C13.433 0.0129061 12.0859 -0.0385445 11.5723 0.0329391ZM13.3996 1.52266C14.0042 1.61388 14.7214 1.85658 15.2059 2.13391C16.0078 2.59306 16.7872 3.34449 17.0791 3.93981C17.2054 4.1976 17.2121 4.24886 17.2279 5.08785L17.2445 5.96607L16.6344 5.37183C15.8142 4.57315 15.7883 4.5667 14.9112 4.94371C14.6872 5.03996 14.2892 5.17687 14.0269 5.24787C13.5806 5.36875 13.4821 5.37706 12.5 5.37706C11.5179 5.37706 11.4194 5.36875 10.9731 5.24787C10.7108 5.17687 10.3128 5.03996 10.0888 4.94371C9.20928 4.56567 9.17739 4.57359 8.36533 5.37031L7.76367 5.9606V5.16945C7.76367 4.04902 7.87788 3.76728 8.63872 3.01126C9.8689 1.78881 11.592 1.25007 13.3996 1.52266ZM10.0119 6.48244C10.8915 6.78464 11.2933 6.84396 12.4756 6.84616C13.6748 6.84841 13.9615 6.80795 14.9301 6.49993L15.4804 6.32496L15.9678 6.79309C16.3609 7.17064 16.5315 7.2969 16.8498 7.44558L17.2443 7.62994L17.2202 8.14298C17.1321 10.0164 15.7844 11.7282 13.9393 12.3105C12.2631 12.8395 10.4549 12.4141 9.20503 11.1968C8.33272 10.3472 7.83311 9.27665 7.77979 8.14298L7.75566 7.62994L8.15088 7.44529C8.47104 7.29568 8.63638 7.17309 9.02158 6.79959C9.2831 6.54605 9.51645 6.33781 9.54009 6.33688C9.56377 6.3359 9.77607 6.40143 10.0119 6.48244ZM11.2883 13.8924C11.5487 13.9519 11.8771 13.974 12.5 13.974C13.1229 13.974 13.4513 13.9519 13.7117 13.8924C13.9082 13.8475 14.0784 13.8108 14.0901 13.8108C14.1018 13.8108 14.1113 14.1785 14.1113 14.6279V15.4449L13.3179 16.7764C12.8815 17.5086 12.5134 18.1078 12.5 18.1078C12.4866 18.1078 12.1186 17.5086 11.6821 16.7764L10.8887 15.4449V14.6279C10.8887 14.1785 10.8982 13.8108 10.9099 13.8108C10.9216 13.8108 11.0918 13.8475 11.2883 13.8924ZM7.36968 21.9444C7.98589 22.2633 7.98628 23.1234 7.37036 23.4378C7.13579 23.5576 6.91904 23.5587 6.66118 23.4415C6.03955 23.159 6.01187 22.3314 6.61187 21.9653C6.79473 21.8537 7.17417 21.8433 7.36968 21.9444Z" fill="white"/>
</svg>
